<?xml version="1.0" standalone="no"?><!DOCTYPE svg PUBLIC "-//W3C//DTD SVG 1.1//EN" "http://www.w3.org/Graphics/SVG/1.1/DTD/svg11.dtd"><svg t="1561715258567" class="icon" viewBox="0 0 1024 1024" version="1.1" xmlns="http://www.w3.org/2000/svg" p-id="3270" width="32" height="32" xmlns:xlink="http://www.w3.org/1999/xlink"><defs><style type="text/css"></style></defs><path d="M0.74 511.704c0 282.522 229.031 511.554 511.554 511.554s511.554-229.031 511.554-511.554C1023.848 229.18 794.817 0.15 512.294 0.15S0.74 229.181 0.74 511.704z" fill="#DE2910" p-id="3271"></path><path d="M342.121 260.368l49.323 145.528H550.97l-129.249 94.575 47.857 144.385-127.296-85.786-127.457 85.786 47.857-144.385-128.27-94.575h159.526l48.185-145.528zM854.07 550.606l15.953 47.046h51.765l-41.998 30.763 15.628 46.72-41.344-27.671-41.184 27.671 15.469-46.72-41.511-30.763h51.601l15.628-47.046h-0.006z m-34.671-215.031l35.323 35.161 46.231-22.79-23.927 45.905 34.672 35.161-49.16-6.675-24.743 43.137-6.836-48.673-50.948-9.118 46.387-22.789-6.998-49.319zM650.755 212.349l46.884 16.927 32.232-40.371-2.121 51.928 46.068 17.094-47.367 14.813-4.072 49.488-26.858-41.184-49.971 13.347 32.393-40.371-27.189-41.67z m0 511.95l46.884 17.091 32.232-40.37-2.121 51.927 46.068 17.091-47.367 14.813-4.072 49.648-26.858-41.344-49.971 13.185 32.393-40.37-27.189-41.67z" fill="#FFDC00" p-id="3272"></path></svg>